<?xml version="1.0" standalone="no"?>
<!DOCTYPE svg PUBLIC "-//W3C//DTD SVG 20010904//EN"
 "http://www.w3.org/TR/2001/REC-SVG-20010904/DTD/svg10.dtd">
<svg version="1.0" xmlns="http://www.w3.org/2000/svg"
 width="192.000000pt" height="192.000000pt" viewBox="0 0 192.000000 192.000000"
 preserveAspectRatio="xMidYMid meet">
<metadata>
Created by potrace 1.16, written by Peter Selinger 2001-2019
</metadata>
<g transform="translate(0.000000,192.000000) scale(0.100000,-0.100000)"
fill="#000000" stroke="none">
<path d="M0 960 l0 -960 960 0 960 0 0 960 0 960 -960 0 -960 0 0 -960z m1009
545 c16 -8 31 -22 35 -30 3 -9 6 -80 6 -157 0 -118 2 -139 15 -135 8 4 73 40
145 82 76 43 143 75 159 75 30 0 66 -28 76 -60 17 -52 -9 -75 -206 -187 l-189
-108 0 -123 0 -123 29 15 c16 9 80 45 142 82 132 78 167 85 205 40 30 -34 30
-68 2 -100 -13 -14 -103 -70 -200 -126 l-178 -102 0 -104 0 -104 -80 0 -80 0
0 104 0 104 -172 98 c-95 54 -185 111 -200 126 -34 33 -36 68 -4 104 39 46 72
38 230 -55 76 -44 140 -81 142 -81 3 0 3 55 2 122 l-3 123 -184 106 c-191 111
-219 136 -207 185 9 33 45 64 76 64 14 0 88 -36 165 -80 77 -44 143 -80 148
-80 4 0 7 65 7 145 0 142 1 147 25 170 28 29 54 31 94 10z"/>
</g>
</svg>
